HIERARCHY
ROOT Hips
{
	OFFSET 0.000000 0.000000 0.000000
	CHANNELS 6 Xposition Yposition Zposition Zrotation Yrotation Xrotation 
	JOINT LeftUpLeg_virtual
	{
		OFFSET 0.000000 0.000000 0.000000
		CHANNELS 3 Zrotation Yrotation Xrotation
		JOINT LeftUpLeg
		{
			OFFSET 10.205400 -3.823500 0.155100
			CHANNELS 3 Zrotation Yrotation Xrotation
			JOINT LeftLeg
			{
				OFFSET 0.708757 -12.982077 0.567790
				CHANNELS 3 Zrotation Yrotation Xrotation
				JOINT LeftFoot
				{
					OFFSET -0.708756 -10.717838 -2.184338
					CHANNELS 3 Zrotation Yrotation Xrotation
					JOINT LeftToeBase
					{
						OFFSET 0.108149 -7.191104 7.560241
						CHANNELS 3 Zrotation Yrotation Xrotation
						End Site
						{
							OFFSET 0.000000 0.000000 0.000000
						}
					}
				}
			}
		}
	}
	JOINT RightUpLeg_virtual
	{
		OFFSET 0.000000 0.000000 0.000000
		CHANNELS 3 Zrotation Yrotation Xrotation
		JOINT RightUpLeg
		{
			OFFSET -10.205400 -3.823500 0.005500
			CHANNELS 3 Zrotation Yrotation Xrotation
			JOINT RightLeg
			{
				OFFSET -0.708756 -12.982134 0.610632
				CHANNELS 3 Zrotation Yrotation Xrotation
				JOINT RightFoot
				{
					OFFSET 0.708754 -10.717769 -1.945823
					CHANNELS 3 Zrotation Yrotation Xrotation
					JOINT RightToeBase
					{
						OFFSET -0.108140 -7.191069 7.372968
						CHANNELS 3 Zrotation Yrotation Xrotation
						End Site
						{
							OFFSET 0.000000 0.000000 0.000000
						}
					}
				}
			}
		}
	}
	JOINT Spine_virtual
	{
		OFFSET 0.000000 0.000000 0.000000
		CHANNELS 3 Zrotation Yrotation Xrotation
		JOINT Spine
		{
			OFFSET 0.000000 6.876099 0.125700
			CHANNELS 3 Zrotation Yrotation Xrotation
			JOINT Spine1
			{
				OFFSET 0.000000 8.022060 0.146608
				CHANNELS 3 Zrotation Yrotation Xrotation
				JOINT Spine2
				{
					OFFSET 0.000000 9.168068 0.167552
					CHANNELS 3 Zrotation Yrotation Xrotation
					JOINT Neck_virtual
					{
						OFFSET 0.000000 0.000000 0.000000
						CHANNELS 3 Zrotation Yrotation Xrotation
						JOINT Neck
						{
							OFFSET 0.000000 10.314075 0.188496
							CHANNELS 3 Zrotation Yrotation Xrotation
							JOINT Head
							{
								OFFSET 0.000000 7.643700 -2.377400
								CHANNELS 3 Zrotation Yrotation Xrotation
								End Site
								{
									OFFSET 0.000000 0.000000 0.000000
								}
							}
						}
					}
					JOINT LeftShoulder_virtual
					{
						OFFSET 0.000000 0.000000 0.000000
						CHANNELS 3 Zrotation Yrotation Xrotation
						JOINT LeftShoulder
						{
							OFFSET 4.392200 8.824978 0.174984
							CHANNELS 3 Zrotation Yrotation Xrotation
							JOINT LeftArm
							{
								OFFSET 8.771219 -2.981674 -0.026999
								CHANNELS 3 Zrotation Yrotation Xrotation
								JOINT LeftForeArm
								{
									OFFSET 8.512804 0.000000 -0.000000
									CHANNELS 3 Zrotation Yrotation Xrotation
									JOINT LeftHand
									{
										OFFSET 18.484802 0.000000 -0.000000
										CHANNELS 3 Zrotation Yrotation Xrotation
										End Site
										{
											OFFSET 0.000000 0.000000 0.000000
										}
									}
								}
							}
						}
					}
					JOINT RightShoulder_virtual
					{
						OFFSET 0.000000 0.000000 0.000000
						CHANNELS 3 Zrotation Yrotation Xrotation
						JOINT RightShoulder
						{
							OFFSET -4.392200 8.824993 0.141379
							CHANNELS 3 Zrotation Yrotation Xrotation
							JOINT RightArm
							{
								OFFSET -8.771282 -2.981682 -0.094208
								CHANNELS 3 Zrotation Yrotation Xrotation
								JOINT RightForeArm
								{
									OFFSET -8.494598 0.000000 0.000000
									CHANNELS 3 Zrotation Yrotation Xrotation
									JOINT RightHand
									{
										OFFSET -18.483803 0.000000 0.000001
										CHANNELS 3 Zrotation Yrotation Xrotation
										End Site
										{
											OFFSET 0.000000 0.000000 0.000000
										}
									}
								}
							}
						}
					}
				}
			}
		}
	}
}
MOTION
Frames: 14
Frame Time: 0.033333
-2.193298 36.823959 64.797302 179.553037 5.433171 -179.940951 -3.750068 -2.806472 10.351068 -5.609345 -3.605297 -18.114946 10.892185 11.237942 14.171567 -5.618657 0.790179 12.499825 0.000000 0.000000 0.000000 2.905974 -1.295197 7.563548 1.668654 -3.704503 -5.947722 -6.259651 -4.327527 10.310545 4.840939 8.577678 10.795301 0.000000 0.000000 0.000000 1.276711 0.605843 0.171669 -3.771727 3.492248 -8.329621 1.286486 -4.544220 3.600141 0.017195 0.024414 0.013871 1.133120 -3.028563 5.733166 1.188598 2.010469 5.438544 0.000000 0.000000 0.000000 2.434117 -1.900598 2.649130 1.687779 -4.745436 -5.223593 -12.929751 30.205296 -29.583465 -7.412199 -31.511645 -0.289094 0.000000 0.000000 0.000000 -0.854379 -1.238349 2.361004 10.281742 -2.521271 -10.490581 19.146673 -38.914204 -32.890581 -0.738941 37.388428 -4.658935 0.000000 0.000000 0.000000 
-2.196723 36.822311 64.789749 179.328830 5.584610 179.946702 -3.904919 -2.662348 10.376957 -5.773041 -3.543155 -18.091853 10.703007 11.560437 14.154222 -5.757190 0.701399 12.452996 0.000000 0.000000 0.000000 3.259393 -1.453296 7.680173 2.044817 -4.218673 -5.834762 -6.047744 -4.655038 10.388024 5.096650 8.734600 10.656657 0.000000 0.000000 0.000000 1.122957 0.555890 0.222805 -3.844711 3.600702 -8.278176 1.212345 -4.546858 3.645331 0.028331 0.160870 0.045266 1.164018 -3.051609 5.716978 1.400817 2.182667 5.503276 0.000000 0.000000 0.000000 2.394182 -1.881928 2.576863 1.805203 -4.751811 -5.244893 -12.799880 30.177589 -29.581034 -7.398785 -31.482702 -0.306562 0.000000 0.000000 0.000000 -0.881969 -1.220304 2.365970 10.419409 -2.515968 -10.390166 19.219432 -38.883960 -32.740867 -0.771045 37.398462 -4.674261 0.000000 0.000000 0.000000 
-2.193939 36.818325 64.773888 179.316986 5.546802 179.942085 -3.911615 -2.740832 10.350579 -5.771479 -3.533740 -18.079284 10.691550 11.537976 14.206162 -5.757193 0.724817 12.355743 0.000000 0.000000 0.000000 3.257174 -1.468583 7.668964 2.046886 -4.337123 -5.860772 -6.047523 -4.601691 10.461921 5.137944 8.686079 10.644204 0.000000 0.000000 0.000000 1.105121 0.495924 0.180910 -3.812402 3.542760 -8.275698 1.226576 -4.467239 3.643779 0.036428 0.071286 0.028803 1.187006 -2.952653 5.708185 1.434003 2.149485 5.523236 0.000000 0.000000 0.000000 2.375242 -1.836849 2.536600 1.811404 -4.737941 -5.180637 -12.734142 30.197264 -29.746007 -7.390172 -31.536172 -0.257796 0.000000 0.000000 0.000000 -0.869689 -1.165618 2.355304 10.544050 -2.475874 -10.422110 19.213061 -38.927304 -32.535818 -0.840013 37.313904 -4.788934 0.000000 0.000000 0.000000 
-2.190151 36.813049 64.753876 179.336698 5.485898 179.967753 -3.892315 -2.835750 10.337732 -5.777050 -3.560693 -18.044351 10.702608 11.544969 14.316270 -5.744564 0.766380 12.209513 0.000000 0.000000 0.000000 3.275237 -1.528089 7.672246 2.059298 -4.529517 -5.928606 -6.036887 -4.508432 10.541203 5.197818 8.624339 10.685234 0.000000 0.000000 0.000000 1.098923 0.484627 0.153946 -3.772402 3.537860 -8.265376 1.224701 -4.477866 3.632454 0.035966 0.046662 0.039219 1.124140 -2.970349 5.656547 1.427980 2.088561 5.463274 0.000000 0.000000 0.000000 2.349304 -1.809897 2.522703 1.803991 -4.792349 -5.123164 -12.515619 30.095972 -29.524613 -7.356547 -31.536151 -0.229137 0.000000 0.000000 0.000000 -0.891789 -1.129187 2.377297 10.585834 -2.487935 -10.393143 19.445065 -38.872440 -32.712170 -0.747083 37.328015 -4.686875 0.000000 0.000000 0.000000 
-2.184964 36.808224 64.738586 179.315497 5.468016 179.971947 -3.895634 -2.929212 10.321229 -5.771513 -3.554571 -18.078683 10.699826 11.445497 14.459751 -5.721655 0.831194 12.090231 0.000000 0.000000 0.000000 3.276715 -1.571358 7.707175 2.055177 -4.793028 -5.998198 -6.031428 -4.426200 10.686448 5.283621 8.563719 10.700273 0.000000 0.000000 0.000000 1.068498 0.460760 0.157327 -3.708058 3.541677 -8.239997 1.259331 -4.454082 3.619404 0.124888 0.053988 0.031441 1.070662 -2.906523 5.581245 1.400279 1.996495 5.423908 0.000000 0.000000 0.000000 2.288614 -1.821052 2.549118 1.768187 -4.917645 -5.125735 -12.280631 29.964781 -29.193878 -7.319119 -31.495396 -0.135763 0.000000 0.000000 0.000000 -0.955815 -1.151213 2.298083 10.698589 -2.579416 -10.339160 19.549116 -38.833758 -32.649943 -0.713204 37.310759 -4.694896 0.000000 0.000000 0.000000 
-2.182791 36.801189 64.725777 179.385711 5.586646 179.981686 -3.832831 -2.855825 10.315069 -5.762946 -3.572835 -18.105472 10.701045 11.364155 14.724677 -5.692627 0.916663 11.970483 0.000000 0.000000 0.000000 3.342950 -1.456558 7.705186 2.067557 -5.202788 -6.099637 -6.034088 -4.369487 10.914840 5.425339 8.527511 10.714732 0.000000 0.000000 0.000000 1.129978 0.410782 0.172905 -3.605536 3.557560 -8.212759 1.252384 -4.350120 3.611574 0.062618 0.114546 0.023773 1.057920 -2.936887 5.562734 1.379742 1.885447 5.417692 0.000000 0.000000 0.000000 2.311282 -1.803574 2.565573 1.753366 -5.026837 -5.133656 -12.153318 29.862414 -28.977829 -7.289009 -31.518844 0.074345 0.000000 0.000000 0.000000 -0.922787 -1.153130 2.291976 10.773316 -2.619329 -10.234011 19.697200 -38.856413 -32.838166 -0.651189 37.366032 -4.655778 0.000000 0.000000 0.000000 
-2.183116 36.798466 64.722954 179.350877 5.579511 -179.970253 -3.883769 -2.968151 10.325807 -5.729054 -3.677872 -18.258040 10.728646 11.333442 14.954651 -5.641830 1.003008 11.674779 0.000000 0.000000 0.000000 3.336891 -1.556529 7.682818 2.030410 -5.221683 -6.254608 -6.024741 -4.285051 11.097341 5.499630 8.410423 10.691840 0.000000 0.000000 0.000000 1.106146 0.394612 0.159183 -3.539530 3.482248 -8.198799 1.239623 -4.411424 3.626657 0.040037 0.027469 0.043782 1.146936 -2.917385 5.511108 1.443184 1.885169 5.414033 0.000000 0.000000 0.000000 2.353506 -1.672458 2.502684 1.687770 -5.060497 -4.991280 -12.092741 29.835223 -28.678055 -7.214892 -31.683882 0.181546 0.000000 0.000000 0.000000 -0.866318 -1.032787 2.350163 10.837005 -2.579766 -10.231115 19.817039 -38.788924 -33.172542 -0.542350 37.439293 -4.520407 0.000000 0.000000 0.000000 
-2.181708 36.800961 64.735695 179.272289 5.637565 -179.986932 -3.963954 -3.047066 10.184480 -5.726308 -3.714310 -18.165513 10.696990 11.223503 15.079179 -5.587720 1.118013 11.721727 0.000000 0.000000 0.000000 3.300715 -1.611730 7.694494 1.977113 -5.242622 -6.380507 -6.025261 -4.221778 11.273920 5.607942 8.284978 10.759124 0.000000 0.000000 0.000000 0.955537 0.435885 0.219226 -3.460528 3.463385 -8.154483 1.420590 -4.367363 3.649506 0.093415 0.037270 0.017376 1.069524 -2.857127 5.520138 1.305543 1.716406 5.473938 0.000000 0.000000 0.000000 2.263258 -1.664235 2.555805 1.517198 -5.234021 -4.961183 -12.095392 29.833228 -28.388979 -7.066415 -31.786061 0.291887 0.000000 0.000000 0.000000 -0.955454 -1.040869 2.303554 10.822985 -2.617201 -10.152157 19.952605 -38.822638 -33.481912 -0.479947 37.595479 -4.480732 0.000000 0.000000 0.000000 
-2.184454 36.802689 64.751869 179.364797 5.847577 -179.866598 -3.895136 -2.962072 10.085461 -5.690411 -3.816983 -18.244591 10.706408 11.219898 15.255784 -5.544582 1.245794 11.690843 0.000000 0.000000 0.000000 3.380016 -1.445533 7.591865 1.993532 -5.276573 -6.594449 -6.030681 -4.184229 11.513292 5.706812 8.152214 10.790692 0.000000 0.000000 0.000000 1.065321 0.430483 0.171800 -3.338585 3.415946 -8.149016 1.316249 -4.293246 3.723464 0.104180 0.039945 0.075586 1.223126 -2.467699 5.511301 1.345993 1.686569 5.549431 0.000000 0.000000 0.000000 2.319373 -1.539934 2.557828 1.516251 -5.291580 -4.889111 -12.490121 29.892398 -28.317544 -6.967104 -31.936523 0.536967 0.000000 0.000000 0.000000 -0.898193 -0.957841 2.431613 10.890601 -2.586371 -10.122640 20.019247 -38.748128 -33.925133 -0.230043 37.786140 -4.229164 0.000000 0.000000 0.000000 
-2.181540 36.806843 64.777313 179.384537 5.954039 -179.855082 -3.920573 -2.988407 10.015673 -5.630542 -3.912261 -18.268133 10.724895 11.173174 15.354024 -5.504369 1.386156 11.640626 0.000000 0.000000 0.000000 3.407002 -1.430124 7.587071 2.004878 -5.306488 -6.790993 -6.024498 -4.103820 11.703034 5.769054 7.986547 10.903576 0.000000 0.000000 0.000000 1.063037 0.502516 0.187621 -3.249845 3.365602 -8.141167 1.323352 -4.224566 3.793130 0.040467 0.045554 0.037479 1.220319 -2.655140 5.556933 1.208435 1.534610 5.720704 0.000000 0.000000 0.000000 2.389959 -1.521452 2.710355 1.435636 -5.449245 -5.001012 -12.887701 30.046774 -27.951381 -6.845607 -32.208980 0.718589 0.000000 0.000000 0.000000 -0.793536 -0.918184 2.449842 10.974548 -2.582399 -9.827064 20.085223 -38.714277 -33.954667 -0.374306 37.991110 -4.363443 0.000000 0.000000 0.000000 
-2.168379 36.814713 64.799889 179.308817 6.145450 -179.851107 -4.016704 -2.957176 9.947217 -5.549101 -3.967875 -18.281800 10.694117 11.139978 15.444542 -5.470469 1.549312 11.638331 0.000000 0.000000 0.000000 3.362513 -1.361418 7.600343 2.006063 -5.301074 -7.016467 -6.009147 -4.030066 11.905279 5.808868 7.835158 10.989769 0.000000 0.000000 0.000000 0.991390 0.588007 0.237101 -3.255231 3.302562 -8.142205 1.462729 -4.187147 3.893320 0.106262 0.033285 0.052112 1.236297 -2.570150 5.600658 1.060409 1.373826 5.994826 0.000000 0.000000 0.000000 2.370422 -1.452972 2.825340 1.279708 -5.518551 -4.972837 -13.621789 30.323185 -27.706031 -6.721196 -32.656193 0.963792 0.000000 0.000000 0.000000 -0.808051 -0.841600 2.490735 11.036600 -2.494909 -9.572978 20.316678 -38.729512 -34.102110 -0.433119 38.309496 -4.397796 0.000000 0.000000 0.000000 
-2.147773 36.817116 64.822075 179.351014 6.341496 -179.829387 -4.003928 -2.893702 9.918857 -5.416983 -3.942908 -18.375869 10.696747 11.198168 15.684539 -5.451093 1.716278 11.523080 0.000000 0.000000 0.000000 3.394236 -1.289299 7.616537 2.054140 -5.339284 -7.247829 -5.971314 -3.952631 12.083727 5.818019 7.696878 11.098212 0.000000 0.000000 0.000000 0.987627 0.473825 0.294229 -3.141255 3.333375 -8.135658 1.427214 -4.007337 4.041451 0.092078 0.121860 0.053041 1.364618 -2.642923 5.679189 1.035042 1.354121 6.366500 0.000000 0.000000 0.000000 2.457647 -1.432075 2.964567 1.153914 -5.597252 -5.018673 -14.452602 30.657837 -26.891771 -6.530122 -33.311283 1.139044 0.000000 0.000000 0.000000 -0.706948 -0.854483 2.619847 11.170530 -2.487639 -9.347068 20.612591 -38.794494 -33.994371 -0.410418 38.875005 -4.368127 0.000000 0.000000 0.000000 
-2.117883 36.819103 64.856720 179.338310 6.536660 -179.829496 -4.014818 -2.913712 9.918467 -5.297946 -3.935525 -18.467351 10.610878 11.249567 15.824133 -5.420020 1.906558 11.512368 0.000000 0.000000 0.000000 3.388606 -1.284700 7.606205 2.106145 -5.337051 -7.463681 -5.924812 -3.846714 12.258433 5.758927 7.548299 11.126832 0.000000 0.000000 0.000000 0.970075 0.635512 0.372922 -3.107043 3.221823 -8.107329 1.438911 -4.047022 4.254316 0.064074 0.029365 0.020380 1.347242 -2.511181 5.832479 0.852326 1.142228 6.881421 0.000000 0.000000 0.000000 2.496265 -1.330324 3.101775 0.950856 -5.530539 -4.886932 -15.727294 31.179684 -25.919035 -6.492930 -34.311947 1.481776 0.000000 0.000000 0.000000 -0.654860 -0.732534 2.826076 11.311562 -2.376985 -9.035183 21.235123 -38.837036 -33.789543 -0.509879 39.559124 -4.414160 0.000000 0.000000 0.000000 
-2.078749 36.817150 64.907265 179.429110 6.644350 -179.799812 -3.901507 -3.016133 9.900932 -5.121512 -3.997323 -18.565060 10.526425 11.445380 16.019674 -5.466159 2.053578 11.571322 0.000000 0.000000 0.000000 3.463999 -1.296849 7.559669 2.239993 -5.366696 -7.659179 -5.866394 -3.732698 12.400020 5.619805 7.373135 11.174846 0.000000 0.000000 0.000000 1.073493 0.593565 0.432122 -3.088186 3.181901 -8.081658 1.414284 -3.973950 4.514121 0.078739 0.021562 0.056449 1.337970 -2.251409 5.967722 0.816178 1.034182 7.588392 0.000000 0.000000 0.000000 2.496725 -1.290398 3.215257 0.709750 -5.455233 -4.886433 -17.302836 31.730033 -24.435688 -6.462353 -35.719471 1.829779 0.000000 0.000000 0.000000 -0.658224 -0.690217 3.021797 11.534666 -2.374015 -8.809580 22.016322 -39.086215 -33.107194 -0.556957 40.613244 -4.299020 0.000000 0.000000 0.000000 
